{"cells":[{"cell_type":"markdown","source":["## Setup Colab"],"metadata":{"id":"Q9cQNCpCGAcZ"}},{"cell_type":"code","source":["from google.colab import drive \n","drive.mount('/content/gdrive')"],"metadata":{"colab":{"base_uri":"https://localhost:8080/"},"id":"aSZz2BwPEcbP","executionInfo":{"status":"ok","timestamp":1674048678856,"user_tz":180,"elapsed":20477,"user":{"displayName":"BENJAMÍN NICOLÁS ALVIAL","userId":"15655169187878286848"}},"outputId":"3c4bebf4-3b0b-4cc2-b3f8-e73278a6bc08"},"execution_count":1,"outputs":[{"output_type":"stream","name":"stdout","text":["Mounted at /content/gdrive\n"]}]},{"cell_type":"code","source":["wdir = '/content/gdrive/Othercomputers/My MacBook Air/cell-jamming/experiment_a'"],"metadata":{"id":"CnuOsyeWFiK0","executionInfo":{"status":"ok","timestamp":1674048678858,"user_tz":180,"elapsed":16,"user":{"displayName":"BENJAMÍN NICOLÁS ALVIAL","userId":"15655169187878286848"}}},"execution_count":2,"outputs":[]},{"cell_type":"code","execution_count":3,"metadata":{"id":"EBSbCuHu9ml9","executionInfo":{"status":"ok","timestamp":1674048680110,"user_tz":180,"elapsed":1264,"user":{"displayName":"BENJAMÍN NICOLÁS ALVIAL","userId":"15655169187878286848"}}},"outputs":[],"source":["import matplotlib.pyplot as plt\n","import numpy as np\n","import os\n","import pandas as pd"]},{"cell_type":"markdown","metadata":{"id":"7RMXlsShXevc"},"source":["## Creation of frames"]},{"cell_type":"code","source":["video_name = 'full_velocity'\n","\n","data_folder_name = 'data_extracted'\n","videos_dir = 'videos/' + video_name\n","n_frames = 29"],"metadata":{"id":"4iWmLyXCABQZ","executionInfo":{"status":"ok","timestamp":1674048680112,"user_tz":180,"elapsed":22,"user":{"displayName":"BENJAMÍN NICOLÁS ALVIAL","userId":"15655169187878286848"}}},"execution_count":4,"outputs":[]},{"cell_type":"code","execution_count":5,"metadata":{"id":"ohtMbR349ml_","executionInfo":{"status":"ok","timestamp":1674048694282,"user_tz":180,"elapsed":14190,"user":{"displayName":"BENJAMÍN NICOLÁS ALVIAL","userId":"15655169187878286848"}}},"outputs":[],"source":["for i in range(0, n_frames):\n","  number_str = str(i).zfill(3)\n","  \n","  file_name =  'frame' + number_str + '.csv'\n","  img_name =  'frame' + number_str + '.png'\n","\n","  df = pd.read_csv(os.path.join(wdir, data_folder_name, file_name))\n","  X = df['pos_x'].to_numpy()\n","  Y = df['pos_y'].to_numpy()\n","  U = df['vel_x'].to_numpy()\n","  V = df['vel_y'].to_numpy()\n","\n","  fig, ax = plt.subplots(1, 1, figsize=(6,6))\n","  fig.suptitle('Frame ' + number_str)\n","  ax.quiver(X, Y, U, V, edgecolors='k')\n","  ax.set_ylim(ax.get_ylim()[1], ax.get_ylim()[0])\n","  fig.savefig(os.path.join(wdir, videos_dir, img_name))\n","  plt.close(fig)"]},{"cell_type":"markdown","metadata":{"id":"vIWCLkXGS3CJ"},"source":["## Creation of video"]},{"cell_type":"code","source":["!apt install ffmpeg"],"metadata":{"id":"GCKCsxwXAS0d","colab":{"base_uri":"https://localhost:8080/"},"executionInfo":{"status":"ok","timestamp":1674048697166,"user_tz":180,"elapsed":2917,"user":{"displayName":"BENJAMÍN NICOLÁS ALVIAL","userId":"15655169187878286848"}},"outputId":"16f362b1-69b4-4cc6-b892-62892f140dfd"},"execution_count":6,"outputs":[{"output_type":"stream","name":"stdout","text":["Reading package lists... Done\n","Building dependency tree       \n","Reading state information... Done\n","ffmpeg is already the newest version (7:4.2.7-0ubuntu0.1).\n","0 upgraded, 0 newly installed, 0 to remove and 23 not upgraded.\n"]}]},{"cell_type":"code","source":["%cd {os.path.join(wdir, videos_dir)}\n","!ffmpeg -r 6 -i frame%03d.png -vcodec mpeg4 -y {video_name}.mp4"],"metadata":{"colab":{"base_uri":"https://localhost:8080/"},"id":"dkvISLqiBgAW","executionInfo":{"status":"ok","timestamp":1674048698776,"user_tz":180,"elapsed":1617,"user":{"displayName":"BENJAMÍN NICOLÁS ALVIAL","userId":"15655169187878286848"}},"outputId":"6d081545-88b9-43dd-86cf-5754cf44d081"},"execution_count":7,"outputs":[{"output_type":"stream","name":"stdout","text":["/content/gdrive/Othercomputers/My MacBook Air/cell-jamming/experiment_a/videos/full_velocity\n","ffmpeg version 4.2.7-0ubuntu0.1 Copyright (c) 2000-2022 the FFmpeg developers\n","  built with gcc 9 (Ubuntu 9.4.0-1ubuntu1~20.04.1)\n","  configuration: --prefix=/usr --extra-version=0ubuntu0.1 --toolchain=hardened --libdir=/usr/lib/x86_64-linux-gnu --incdir=/usr/include/x86_64-linux-gnu --arch=amd64 --enable-gpl --disable-stripping --enable-avresample --disable-filter=resample --enable-avisynth --enable-gnutls --enable-ladspa --enable-libaom --enable-libass --enable-libbluray --enable-libbs2b --enable-libcaca --enable-libcdio --enable-libcodec2 --enable-libflite --enable-libfontconfig --enable-libfreetype --enable-libfribidi --enable-libgme --enable-libgsm --enable-libjack --enable-libmp3lame --enable-libmysofa --enable-libopenjpeg --enable-libopenmpt --enable-libopus --enable-libpulse --enable-librsvg --enable-librubberband --enable-libshine --enable-libsnappy --enable-libsoxr --enable-libspeex --enable-libssh --enable-libtheora --enable-libtwolame --enable-libvidstab --enable-libvorbis --enable-libvpx --enable-libwavpack --enable-libwebp --enable-libx265 --enable-libxml2 --enable-libxvid --enable-libzmq --enable-libzvbi --enable-lv2 --enable-omx --enable-openal --enable-opencl --enable-opengl --enable-sdl2 --enable-libdc1394 --enable-libdrm --enable-libiec61883 --enable-nvenc --enable-chromaprint --enable-frei0r --enable-libx264 --enable-shared\n","  libavutil      56. 31.100 / 56. 31.100\n","  libavcodec     58. 54.100 / 58. 54.100\n","  libavformat    58. 29.100 / 58. 29.100\n","  libavdevice    58.  8.100 / 58.  8.100\n","  libavfilter     7. 57.100 /  7. 57.100\n","  libavresample   4.  0.  0 /  4.  0.  0\n","  libswscale      5.  5.100 /  5.  5.100\n","  libswresample   3.  5.100 /  3.  5.100\n","  libpostproc    55.  5.100 / 55.  5.100\n","Input #0, image2, from 'frame%03d.png':\n","  Duration: 00:00:01.16, start: 0.000000, bitrate: N/A\n","    Stream #0:0: Video: png, rgba(pc), 432x432 [SAR 2834:2834 DAR 1:1], 25 fps, 25 tbr, 25 tbn, 25 tbc\n","Stream mapping:\n","  Stream #0:0 -> #0:0 (png (native) -> mpeg4 (native))\n","Press [q] to stop, [?] for help\n","Output #0, mp4, to 'full_velocity.mp4':\n","  Metadata:\n","    encoder         : Lavf58.29.100\n","    Stream #0:0: Video: mpeg4 (mp4v / 0x7634706D), yuv420p, 432x432 [SAR 1:1 DAR 1:1], q=2-31, 200 kb/s, 6 fps, 12288 tbn, 6 tbc\n","    Metadata:\n","      encoder         : Lavc58.54.100 mpeg4\n","    Side data:\n","      cpb: bitrate max/min/avg: 0/0/200000 buffer size: 0 vbv_delay: -1\n","frame=   29 fps=0.0 q=31.0 Lsize=     801kB time=00:00:04.66 bitrate=1405.2kbits/s speed=  20x    \n","video:800kB audio:0kB subtitle:0kB other streams:0kB global headers:0kB muxing overhead: 0.122261%\n"]}]}],"metadata":{"colab":{"collapsed_sections":["OlinHUj8SDkS","7RMXlsShXevc","9PyMgTHfSHtw","cwq9pN0uSY2U","vIWCLkXGS3CJ","IbzSj1OMUNml"],"provenance":[]},"kernelspec":{"display_name":"Python 3","language":"python","name":"python3"},"language_info":{"codemirror_mode":{"name":"ipython","version":3},"file_extension":".py","mimetype":"text/x-python","name":"python","nbconvert_exporter":"python","pygments_lexer":"ipython3","version":"3.8.3"}},"nbformat":4,"nbformat_minor":0}